<?xml version="1.0" encoding="utf-8"?>

<svg version="1.1" xmlns="http://www.w3.org/2000/svg" xmlns:xlink="http://www.w3.org/1999/xlink"
  x="0px" y="0px" viewBox="0 0 229.2 78" style="enable-background:new 0 0 229.2 78;" xml:space="preserve">
  <style type="text/css">
    .st0 {
      fill: #FFFFFF;
    }

  </style>
  <path class="st0" d="M7.1,7.2V73h65.7V7.2H7.1z M64.4,25.2L60.2,26v28l4.2,0.8v4.7H48.2v-4.7l4.2-0.8v-6.1l0.8-17.2l-0.2,0
	L42.5,59.6h-5.3L26.9,30.8l-0.2,0l0.8,17.1v6.1l4.2,0.8v4.7H15.5v-4.7l4.2-0.8V26l-4.2-0.8v-4.7h4.2h10.2l9.9,28.8H40l10-28.8h14.4
	V25.2z" />
  <path class="st0" d="M91.4,51.7h8.6l0.3-4.1h6.3V58H81.1v-4.9l14.6-19.4h-7.5l-0.3,4.1h-6.3V27.4h24.5v4.7L91.4,51.7z" />
  <path class="st0" d="M133.1,58c-0.2-0.5-0.4-1-0.6-1.6c-0.2-0.5-0.3-1.1-0.4-1.6c-1,1.1-2.2,2-3.6,2.7c-1.4,0.7-3,1-4.8,1
	c-3,0-5.4-0.8-7.2-2.5c-1.8-1.6-2.6-3.9-2.6-6.7c0-2.9,1.2-5.1,3.5-6.7s5.7-2.4,10.1-2.4h4.2v-3c0-1.5-0.4-2.6-1.3-3.4
	c-0.8-0.8-2.1-1.2-3.8-1.2c-0.9,0-1.8,0.1-2.5,0.3c-0.7,0.2-1.3,0.5-1.8,0.8l-0.5,3.3h-6.2l0-6.8c1.5-1,3.2-1.9,5.2-2.6
	c2-0.7,4.1-1,6.4-1c3.8,0,6.9,0.9,9.2,2.8c2.4,1.9,3.6,4.5,3.6,7.9v12.7c0,0.5,0,0.9,0,1.3c0,0.4,0,0.8,0.1,1.2l2.5,0.3v5H133.1z
	 M126,52.5c1.2,0,2.4-0.3,3.4-0.8s1.8-1.2,2.4-2V45h-4.2c-1.8,0-3.1,0.4-4,1.2s-1.4,1.8-1.4,3c0,1,0.3,1.9,1,2.4
	C123.8,52.2,124.8,52.5,126,52.5z" />
  <path class="st0"
    d="M148.1,53.1l4-0.8v-19l-4.4-0.8v-5h12.7v24.8l4,0.8v5h-16.2V53.1z M160.4,20.1h-8.3v-6.2h8.3V20.1z" />
  <path class="st0" d="M169,32.4v-5h12.1l0.3,4c1-1.5,2.2-2.6,3.7-3.4c1.5-0.8,3.2-1.2,5.1-1.2c2,0,3.6,0.4,5,1.3
	c1.4,0.9,2.5,2.2,3.2,3.9c0.9-1.6,2.2-2.9,3.7-3.9c1.5-0.9,3.3-1.4,5.3-1.4c3,0,5.4,1,7.2,3.1c1.7,2.1,2.6,5.3,2.6,9.5v12.7l4,0.8v5
	h-15.8v-5l3.6-0.8V39.5c0-2.3-0.4-3.9-1.1-4.8s-1.9-1.4-3.4-1.4c-1.2,0-2.2,0.3-3,0.8c-0.9,0.5-1.5,1.2-2.1,2.2c0,0.4,0,0.7,0,0.9
	s0,0.5,0,0.8v14.3l3.3,0.8v5h-14.9v-5l3.3-0.8V39.5c0-2.3-0.4-3.9-1.1-4.8s-1.9-1.4-3.4-1.4c-1.1,0-2.1,0.2-2.9,0.6
	c-0.8,0.4-1.5,1-2.1,1.8v16.5l3.6,0.8v5h-15.8v-5l4-0.8v-19L169,32.4z" />
</svg>
